<svg xmlns="http://www.w3.org/2000/svg" width="84.2" height="84.208" viewBox="0 0 84.2 84.208">
  <g id="gallery-send-svgrepo-com" transform="translate(1.528 1.536)">
    <path id="Path_93" data-name="Path 93" d="M2,18.613l6.846-5.99a8.99,8.99,0,0,1,12.277.409L37.89,29.8a7.817,7.817,0,0,0,10.022.868l1.166-.819a11.726,11.726,0,0,1,14.587.878l12.6,11.339" transform="translate(0 24.428)" fill="none" stroke="#fff" stroke-linecap="round" stroke-width="5"/>
    <path id="Path_94" data-name="Path 94" d="M25.726,2V37.178M25.726,2,37.452,13.726M25.726,2,14,13.726" transform="translate(34.903)" fill="none" stroke="#fff" stroke-linecap="round" stroke-linejoin="round" stroke-width="5"/>
    <path id="Path_95" data-name="Path 95" d="M80.172,41.086c0,18.425,0,27.638-5.724,33.362s-14.937,5.724-33.362,5.724-27.638,0-33.362-5.724S2,59.511,2,41.086c0-4.41,0-8.293.078-11.726M41.086,2C22.661,2,13.448,2,7.724,7.724a15.457,15.457,0,0,0-3.676,6" fill="none" stroke="#fff" stroke-linecap="round" stroke-width="5"/>
  </g>
</svg>
